<svg width="32" height="40" viewBox="0 0 32 40" fill="none" xmlns="http://www.w3.org/2000/svg">
<path d="M31.0329 13.5969C30.9329 19.5888 28.2181 26.4137 22.0481 28.3724C18.9806 29.3465 15.1026 29.0787 13.0994 26.2779C13.0526 26.2127 13.0239 26.078 13.0159 26.0701C12.9276 25.9842 12.926 26.0886 12.909 26.1475C12.0862 28.9377 11.6926 31.9819 10.4756 34.6348C9.80591 36.094 8.83891 37.6455 7.88309 38.9372C7.74214 39.1276 7.23311 39.8625 7.08524 39.9421C6.85972 40.0635 6.72249 39.9871 6.64376 39.7602C6.49217 39.3206 6.41345 38.0597 6.37515 37.5384C6.24005 35.7175 6.27675 33.9019 6.48685 32.089L9.65751 18.611C8.5586 15.886 8.54477 11.5809 11.1612 9.67936C12.709 8.55469 15.1084 8.60877 16.0547 10.4599C17.3823 13.0571 14.9361 17.752 14.4244 20.5072C13.8462 23.6198 16.4249 25.5515 19.3625 24.7948C24.3145 23.5195 26.09 14.9268 25.2124 10.654C23.6268 2.93186 13.243 2.10148 8.04957 6.68289C4.96562 9.40416 3.10078 15.1177 5.46986 18.7875C5.73262 19.1943 6.37303 19.8035 6.37409 20.2691C6.37462 20.5178 5.87996 22.4893 5.764 22.7337C5.36189 23.5811 4.405 23.036 3.82789 22.7019C-0.351775 20.2834 -0.704425 13.7994 0.846594 9.72602C3.28535 3.32266 9.70006 -0.000976562 16.2823 -0.000976562C17.1488 -0.000976562 18.0179 0.0568212 18.8817 0.172417C25.7076 1.08711 31.15 6.55139 31.0329 13.5969Z" fill="#EDEAE5"/>
</svg>
