<svg width="29" height="15" viewBox="0 0 29 15" fill="none" xmlns="http://www.w3.org/2000/svg">
<path d="M23.3306 4.75059C23.4784 5.36776 23.4533 5.86031 23.8566 6.21489C23.929 6.2772 25.3606 6.22676 25.7625 6.29945C29.9053 7.05015 29.7561 13.3955 25.4966 14.0126C22.3289 14.4711 18.3206 13.7426 15.0628 14.0601C14.6329 14.1105 14.1985 13.8153 14.1172 13.3836L14.1113 2.76258C14.1202 2.6528 14.1453 2.48663 14.2221 2.30119C14.7038 1.1425 16.5358 0.933318 17.0396 0.875458C17.3292 0.842819 17.8906 0.781992 18.6161 0.909581C20.4836 1.23745 22.8372 2.70027 23.3306 4.75059Z" fill="#EDEAE5"/>
<path d="M12.3589 14.0369C11.9688 13.7788 11.9969 6.85342 12.0442 5.85793C12.0663 5.39357 12.189 3.57024 12.3012 3.31506C12.4549 2.97087 12.9691 3.08659 13.0607 3.37737C13.1183 3.55985 13.2025 4.53457 13.2276 4.83426C13.3887 6.76885 13.4862 9.10402 13.3827 11.0356C13.3502 11.6454 13.2217 13.3085 13.0562 13.807C12.9705 14.0666 12.5332 14.1542 12.3574 14.0384L12.3589 14.0369Z" fill="#EDEAE5"/>
<path d="M9.09427 14.0419C9.06029 14.0731 8.40725 14.0731 8.37327 14.0419C8.04971 13.7378 8.02755 7.89839 8.07187 7.04533C8.1029 6.44448 8.16347 5.58251 8.23439 4.9965C8.27872 4.6345 8.53875 3.51884 9.02483 4.17162C9.2036 4.41345 9.37942 6.55723 9.40306 7.0394C9.44443 7.88949 9.41044 13.7452 9.09427 14.0434V14.0419Z" fill="#EDEAE5"/>
<path d="M11.0036 4.32887C11.0863 4.38376 11.2887 6.02461 11.3109 6.30649C11.4645 8.33604 11.5798 11.5643 11.1439 13.5167C11.0878 13.7719 11.1247 14.0657 10.7982 14.0597C10.1954 14.0493 10.2146 13.4589 10.1511 12.9248C9.82604 10.149 9.99299 7.3272 10.3047 4.56031C10.3402 4.30217 10.847 4.22502 11.0036 4.32887Z" fill="#EDEAE5"/>
<path d="M6.46285 14.0365C6.15554 13.8332 6.16736 10.9595 6.15259 10.4388C6.11122 8.89289 6.01666 6.97758 6.31954 5.43465C6.36977 5.18095 6.35204 4.88869 6.66822 4.89462C7.27397 4.90501 7.24738 5.49399 7.31534 6.02956C7.50741 7.56063 7.56651 9.49078 7.48672 11.0337C7.4557 11.6479 7.33898 13.3125 7.15725 13.8021C7.05974 14.0647 6.64753 14.1596 6.46285 14.038V14.0365Z" fill="#EDEAE5"/>
<path d="M2.48489 13.7407C2.18201 13.539 2.12439 9.15942 2.17019 8.51258C2.2027 8.05415 2.26327 6.66403 2.84096 6.667C3.30783 6.66848 3.44967 8.03041 3.48365 8.39093C3.559 9.198 3.53093 13.0969 3.13645 13.6117C3.01086 13.7763 2.61786 13.8312 2.48489 13.7422V13.7407Z" fill="#EDEAE5"/>
<path d="M5.08894 14.0127C4.86289 14.302 4.54967 14.1181 4.42556 13.7887C4.09609 12.9178 4.02665 10.102 4.09314 9.10946C4.1153 8.78752 4.29259 7.43598 4.38863 7.22827C4.6265 6.71644 5.07269 7.03541 5.2293 7.52647C5.57798 8.61988 5.52774 10.8809 5.41546 12.0574C5.38295 12.3971 5.21009 13.8569 5.08746 14.0127H5.08894Z" fill="#EDEAE5"/>
<path d="M1.13195 12.71C1.00932 12.7931 0.589726 12.7427 0.475962 12.5809C0.0814827 12.0246 -0.0544428 7.88985 0.79066 7.7133C1.35209 7.5961 1.58405 9.46096 1.59439 9.84225C1.60474 10.2235 1.29299 12.6017 1.13195 12.71Z" fill="#EDEAE5"/>
</svg>
