<svg width="37" height="38" viewBox="0 0 37 38" fill="none" xmlns="http://www.w3.org/2000/svg">
<path d="M24.1033 0.5C24.1386 0.558948 24.2367 0.535369 24.2956 0.535369C28.1077 0.574668 31.5861 0.979448 34.2715 3.95438C36.9568 6.92932 36.9215 10.5173 36.9647 14.2743C36.9647 14.3332 36.9411 14.4315 37 14.4669V23.4978C36.9411 23.5331 36.9647 23.6314 36.9647 23.6903C36.9254 27.4552 36.9293 31.0746 34.2518 34.026C31.2838 37.2996 27.3775 37.4135 23.2396 37.4646C23.1807 37.4646 23.0825 37.4411 23.0472 37.5H14.0254C13.99 37.4411 13.8919 37.4646 13.833 37.4646C9.48697 37.4175 5.41969 37.2603 2.46738 33.6369C0.555442 31.2986 0.0961064 28.2333 0.103958 25.278L0.0332912 24.5549C0.115736 20.8451 -0.0727093 17.1156 0.0332912 13.4058C0.154996 9.2401 0.555442 5.51062 4.05346 2.77934C6.61318 0.779023 9.83638 0.570738 12.9654 0.5H24.1033ZM13.6171 3.87185C11.1673 3.91901 8.15215 3.84434 6.13421 5.42416C3.3939 7.56596 3.52346 10.7492 3.45279 13.9245C3.38212 17.2846 3.38212 20.684 3.45279 24.044C3.51953 27.2194 3.3939 30.4026 6.13421 32.5444C8.16 34.1281 11.0691 34.0299 13.515 34.081C16.8481 34.1517 20.2205 34.1517 23.5576 34.081C26.5099 34.0181 29.6074 34.1439 31.7549 31.7741C33.5059 29.8406 33.5177 27.2862 33.5844 24.8221C33.6904 20.9394 33.6865 17.0292 33.5844 13.1503C33.5177 10.6863 33.5059 8.12793 31.7549 6.19835C29.5957 3.81683 26.4902 3.95438 23.5222 3.8915C20.2362 3.82076 16.9109 3.80897 13.621 3.87578L13.6171 3.87185Z" fill="#EDEAE5"/>
<path d="M18.3827 9.47172C25.2531 9.37347 30.0035 16.4434 27.2396 22.7823C24.2991 29.5417 15.026 30.5163 10.7624 24.4839C6.34183 18.2315 10.7742 9.57782 18.3827 9.47172ZM17.998 12.8554C13.5224 13.1815 10.943 18.2786 13.2554 22.1339C15.5521 25.9616 21.0209 26.1541 23.5689 22.4875C26.5447 18.204 23.1684 12.4781 18.0019 12.8554H17.998Z" fill="#EDEAE5"/>
<path d="M28.1126 6.89343C31.2455 6.55153 31.4772 11.346 28.3835 11.3657C25.6157 11.3814 25.3566 7.1921 28.1126 6.89343Z" fill="#EDEAE5"/>
</svg>
