<svg width="39" height="28" viewBox="0 0 39 28" fill="none" xmlns="http://www.w3.org/2000/svg">
<path d="M28.4432 8.78107C25.7801 11.1138 23.1329 13.472 20.4476 15.7842C19.6584 16.1859 18.7882 16.0605 18.1434 15.4713L1.67583 0.990326C1.66789 0.847406 2.64451 0.593326 2.82396 0.628262H36.1704C36.4483 0.648906 37.0327 0.74101 37.2408 0.910926C37.3551 1.00462 37.3154 0.980798 37.2423 1.07131C34.2902 3.62006 31.3747 6.21168 28.4416 8.78107H28.4432Z" fill="#EDEAE5"/>
<path d="M25.8332 16.8969C29.6524 20.211 33.3905 23.6459 37.2462 26.9283C37.405 27.049 37.189 27.1236 37.0858 27.1697C36.8222 27.2888 36.4649 27.3554 36.1727 27.3713H2.82781C2.64519 27.4047 1.67969 27.1585 1.67969 27.0093L15.2619 15.1231C15.4048 15.0849 15.6716 15.3327 15.8002 15.4343C16.6943 16.1489 17.3406 17.0779 18.5046 17.4241C20.9406 18.1482 21.9617 16.3379 23.6799 15.1104C23.8196 15.1104 25.5696 16.6682 25.8348 16.8969H25.8332Z" fill="#EDEAE5"/>
<path d="M38.5919 2.06934C38.711 2.16462 39.0111 3.07931 38.9968 3.29686V24.6269C39.035 24.8492 38.7237 25.8894 38.549 25.9307L24.916 13.9714L38.5919 2.06934Z" fill="#EDEAE5"/>
<path d="M0.406571 25.9318C0.328759 25.8698 -0.0269537 24.8916 0.00163038 24.7043V3.37419C-0.00789764 2.89144 0.227127 2.46903 0.444683 2.0625L14.0825 14.0281L0.406571 25.9318Z" fill="#EDEAE5"/>
</svg>
