<svg width="26" height="14" viewBox="0 0 26 14" fill="none" xmlns="http://www.w3.org/2000/svg">
<path d="M7.55185 0.121613C13.0469 0.0571793 16.5064 6.00146 13.6038 10.6165C10.9657 14.8111 4.79018 14.998 1.89917 10.9618C-1.34448 6.43328 1.94271 0.187293 7.55185 0.121613Z" fill="#EDEAE5"/>
<path d="M18.6164 0.459695C20.4709 0.313918 21.5894 2.6273 21.989 4.08169C22.6769 6.58518 22.4825 10.5427 20.6612 12.5761C19.1261 14.2898 17.3671 13.567 16.3313 11.8225C14.8037 9.24974 14.7919 4.91079 16.2587 2.31154C16.7409 1.45735 17.5547 0.543352 18.6164 0.459873V0.459695Z" fill="#EDEAE5"/>
<path d="M24.057 1.1192C24.4067 1.11208 24.6549 1.72438 24.7528 1.99333C25.4262 3.8434 25.4523 6.85203 25.3146 8.81067C25.2457 9.7916 25.032 11.7812 24.4809 12.5849C23.7774 13.6105 23.282 11.7663 23.1686 11.2907C22.7565 9.5643 22.7077 7.5503 22.7933 5.78478C22.8519 4.57833 22.9622 3.09031 23.3918 1.95773C23.489 1.70124 23.7301 1.12597 24.0571 1.1192H24.057Z" fill="#EDEAE5"/>
</svg>
