<svg width="52" height="26" viewBox="0 0 52 26" fill="none" xmlns="http://www.w3.org/2000/svg">
<path d="M42.0926 8.00242C42.3611 9.12391 42.3155 10.0189 43.0484 10.6633C43.18 10.7765 45.7815 10.6848 46.5117 10.8169C54.0397 12.181 53.7686 23.7114 46.0285 24.8329C40.2724 25.6659 32.9887 24.3422 27.0688 24.9191C26.2876 25.0108 25.4982 24.4743 25.3506 23.6898L25.3398 4.38992C25.356 4.19043 25.4016 3.88849 25.5412 3.5515C26.4164 1.44601 29.7455 1.06589 30.661 0.960749C31.1872 0.901439 32.2074 0.790908 33.5256 1.02275C36.9191 1.61855 41.1959 4.27669 42.0926 8.00242Z" fill="#EDEAE5"/>
<path d="M22.1553 24.8764C21.4466 24.4073 21.4976 11.8229 21.5835 10.014C21.6238 9.17014 21.8466 5.85689 22.0506 5.3932C22.3298 4.76775 23.2641 4.97803 23.4306 5.50643C23.5353 5.83802 23.6883 7.60922 23.734 8.15379C24.0266 11.6692 24.2038 15.9126 24.0159 19.4226C23.9568 20.5306 23.7232 23.5527 23.4225 24.4585C23.2668 24.9303 22.4721 25.0894 22.1526 24.8791L22.1553 24.8764Z" fill="#EDEAE5"/>
<path d="M16.2231 24.8868C16.1613 24.9434 14.9746 24.9434 14.9129 24.8868C14.3249 24.3341 14.2847 13.7231 14.3652 12.173C14.4216 11.0811 14.5317 9.51483 14.6605 8.44995C14.7411 7.79215 15.2136 5.76484 16.0969 6.95104C16.4217 7.39047 16.7412 11.286 16.7842 12.1622C16.8593 13.7069 16.7976 24.3476 16.2231 24.8895V24.8868Z" fill="#EDEAE5"/>
<path d="M19.694 7.23648C19.8443 7.33623 20.2121 10.3179 20.2524 10.8301C20.5316 14.5181 20.741 20.3843 19.949 23.9321C19.847 24.3958 19.9141 24.9296 19.3208 24.9188C18.2254 24.9 18.2603 23.827 18.1449 22.8565C17.5542 17.8125 17.8576 12.6849 18.4241 7.65704C18.4885 7.18796 19.4094 7.04777 19.694 7.23648Z" fill="#EDEAE5"/>
<path d="M11.4424 24.8759C10.884 24.5066 10.9054 19.2846 10.8786 18.3384C10.8034 15.5293 10.6316 12.0489 11.182 9.24514C11.2732 8.78414 11.241 8.25305 11.8156 8.26383C12.9163 8.2827 12.868 9.35297 12.9915 10.3262C13.3405 13.1084 13.4479 16.6157 13.3029 19.4194C13.2465 20.5355 13.0344 23.5603 12.7042 24.45C12.527 24.9271 11.778 25.0997 11.4424 24.8786V24.8759Z" fill="#EDEAE5"/>
<path d="M4.21242 24.3394C3.66205 23.9727 3.55735 16.0145 3.64057 14.839C3.69964 14.006 3.80971 11.48 4.85945 11.4854C5.70782 11.4881 5.96556 13.9629 6.02731 14.618C6.16423 16.0846 6.11322 23.1694 5.39639 24.1048C5.16819 24.4041 4.45405 24.5038 4.21242 24.3421V24.3394Z" fill="#EDEAE5"/>
<path d="M8.94474 24.8329C8.53398 25.3586 7.96481 25.0243 7.73929 24.4258C7.14059 22.8434 7.01441 17.7266 7.13523 15.923C7.1755 15.338 7.49767 12.882 7.67217 12.5046C8.10442 11.5745 8.91521 12.1542 9.19979 13.0465C9.83339 15.0334 9.74211 19.1419 9.53807 21.2797C9.479 21.8971 9.16489 24.5499 8.94206 24.8329H8.94474Z" fill="#EDEAE5"/>
<path d="M1.75524 22.4654C1.53241 22.6163 0.769943 22.5247 0.563218 22.2308C-0.153608 21.2199 -0.400605 13.7064 1.13507 13.3856C2.15527 13.1726 2.57677 16.5614 2.59557 17.2542C2.61436 17.947 2.04788 22.2686 1.75524 22.4654Z" fill="#EDEAE5"/>
</svg>
