<svg width="25" height="17" viewBox="0 0 25 17" fill="none" xmlns="http://www.w3.org/2000/svg">
<path d="M24.9296 3.12875L23.0699 5.28279C23.6348 5.87737 24.1542 6.5385 24.474 7.30297C27.0128 13.3698 19.7071 18.4963 14.8021 14.2509L12.845 16.2754L10.9446 14.2509C8.75489 16.1787 5.33456 16.3548 3.05056 14.4779C0.152016 12.0956 0.0330208 7.90381 2.67714 5.28279L0.817449 3.12875H5.16233C5.21322 3.12875 5.85752 2.64846 6.01017 2.56743C10.0705 0.410648 14.5457 0.0329166 18.7732 2.04409C19.1047 2.20184 20.4794 3.12914 20.5847 3.12914H24.9296V3.12875ZM17.2572 3.59964C14.4612 2.54943 11.2651 2.48249 8.48872 3.63761C10.7269 4.61384 12.1122 6.07113 12.7855 8.42637C12.8152 8.53049 12.7338 8.64323 12.9119 8.60956C13.2239 6.99922 14.206 5.59789 15.5094 4.62988L17.2572 3.60003V3.59964ZM6.28026 5.73411C1.24841 6.34083 1.98431 14.2779 7.26667 13.7663C12.4841 13.2609 11.8053 5.06829 6.28026 5.73411ZM18.2565 5.73255C13.3245 6.39954 14.031 14.2791 19.3227 13.7663C24.5601 13.2586 23.8219 4.97982 18.2565 5.73255Z" fill="#EDEAE5"/>
<path d="M6.75436 7.53126C9.56875 7.42518 9.83962 11.6605 7.04206 11.8957C4.06758 12.1458 3.83468 7.64125 6.75436 7.53126Z" fill="#EDEAE5"/>
<path d="M18.8092 7.53137C21.8948 7.41511 21.7872 12.2356 18.6358 11.8884C16.012 11.5995 16.1623 7.63118 18.8092 7.53137Z" fill="#EDEAE5"/>
</svg>
