<svg width="43" height="32" viewBox="0 0 43 32" fill="none" xmlns="http://www.w3.org/2000/svg">
<path d="M43 11.4496V20.6183C42.9489 20.8399 42.9212 21.1298 42.905 21.359C42.7378 23.6865 42.5907 27.1243 40.8998 28.9046C39.0694 30.8314 36.7404 30.7078 34.283 30.8357C26.6013 31.2354 18.9039 31.2278 11.2217 30.9313C8.39806 30.8224 3.91254 31.0683 1.95846 28.6859C0.341035 26.7132 0.101311 22.1374 0.0702709 19.6389C0.0693158 19.5582 0.100833 19.4264 0.021562 19.3767C0.0721811 17.1519 -0.0462484 14.9146 0.021562 12.6912C0.0965355 10.2314 0.283253 6.16087 1.49954 4.05923C3.03865 1.39934 5.35996 1.39361 8.11536 1.22981C16.4503 0.735083 24.8087 0.753707 33.1369 1.13669C36.7037 1.30097 40.3291 0.927054 41.9351 4.80228C42.6867 6.61597 42.9083 9.47881 43 11.4496ZM17.1174 9.63496V21.4779L28.4356 15.5798C28.4652 15.4628 28.3596 15.5373 28.3081 15.4958C28.0535 15.2919 27.8912 15.236 27.5798 15.0985C27.5153 15.0698 27.4642 14.9777 27.3855 14.9533C27.2919 14.9247 27.2002 14.9915 27.194 14.9839C27.1849 14.9724 27.2102 14.8907 27.1839 14.853C27.1753 14.8406 26.9681 14.7184 26.9304 14.6973C26.8062 14.6281 26.9604 14.8669 26.8363 14.7919C26.7279 14.726 26.6582 14.5546 26.6114 14.5197C26.5961 14.5082 26.3349 14.4762 26.2437 14.4294C25.9715 14.2905 25.6124 13.9638 25.3177 13.8741C25.2294 13.8473 25.1071 13.8994 25.0264 13.8411C24.982 13.8091 25.015 13.7303 24.9672 13.6907C24.7375 13.4992 24.2132 13.3559 23.9391 13.2108C23.5136 12.9854 23.0399 12.6201 22.5618 12.4348C22.4921 12.4075 22.3661 12.4591 22.3226 12.4247C22.2744 12.3865 22.261 12.2839 22.1965 12.2652C22.1359 12.2481 22.0518 12.3249 21.9888 12.2877C21.942 12.26 21.9024 12.1196 21.824 12.0671C21.7381 12.0102 21.6263 12.0217 21.5409 11.9682C21.1741 11.738 20.5142 11.2872 20.124 11.1406C20.0447 11.111 19.9702 11.1067 19.8872 11.1139L19.9349 11.0203C19.9234 11.005 19.6498 10.9477 19.5901 10.92C19.2525 10.7639 19.0152 10.5619 18.6503 10.4659C18.4335 10.4091 18.561 10.3107 18.5505 10.303L18.3595 10.3498L18.4058 10.2582C18.1909 10.2639 17.2129 9.53563 17.1179 9.63401L17.1174 9.63496Z" fill="#EDEAE5"/>
</svg>
