<svg width="24" height="17" viewBox="0 0 24 17" fill="none" xmlns="http://www.w3.org/2000/svg">
<path d="M23.6577 5.99622V11.0419C23.6295 11.1638 23.6143 11.3234 23.6054 11.4495C23.5134 12.7304 23.4324 14.6222 22.5019 15.6019C21.4946 16.6623 20.2129 16.5943 18.8606 16.6647C14.6332 16.8847 10.3972 16.8804 6.16963 16.7172C4.61571 16.6573 2.14727 16.7927 1.07191 15.4816C0.181817 14.396 0.0498935 11.8779 0.0328117 10.5029C0.0322861 10.4585 0.0496307 10.386 0.00600651 10.3586C0.0338629 9.13427 -0.0313105 7.90307 0.00600651 6.67949C0.0472655 5.32583 0.150019 3.08575 0.81936 1.92919C1.66635 0.465414 2.9438 0.46226 4.46014 0.372121C9.04698 0.0998641 13.6467 0.110113 18.2299 0.320876C20.1927 0.411277 22.1878 0.205508 23.0716 2.3381C23.4853 3.3362 23.6072 4.91166 23.6577 5.99622ZM9.41411 4.99759V11.5149L15.6426 8.26914C15.6589 8.20476 15.6009 8.24575 15.5725 8.22289C15.4324 8.11068 15.343 8.07993 15.1717 8.00424C15.1362 7.98848 15.1081 7.93776 15.0647 7.92436C15.0132 7.90859 14.9628 7.94538 14.9594 7.94117C14.9544 7.93487 14.9683 7.88993 14.9538 7.86917C14.9491 7.86234 14.8351 7.79506 14.8143 7.7835C14.746 7.74539 14.8309 7.87679 14.7625 7.83553C14.7029 7.79926 14.6645 7.70492 14.6388 7.68574C14.6303 7.67943 14.4866 7.66182 14.4364 7.63607C14.2866 7.55959 14.089 7.37984 13.9268 7.33044C13.8782 7.31572 13.8109 7.34436 13.7665 7.3123C13.7421 7.2947 13.7602 7.25133 13.7339 7.22952C13.6075 7.12414 13.319 7.0453 13.1681 6.96541C12.934 6.84137 12.6733 6.64033 12.4102 6.53837C12.3719 6.52339 12.3025 6.55177 12.2786 6.53285C12.252 6.51183 12.2447 6.45532 12.2092 6.44508C12.1758 6.43562 12.1296 6.47793 12.0949 6.45743C12.0691 6.44219 12.0473 6.36492 12.0042 6.33602C11.9569 6.30474 11.8954 6.31105 11.8484 6.28162C11.6466 6.15495 11.2834 5.90687 11.0687 5.82619C11.025 5.8099 10.9841 5.80753 10.9383 5.81147L10.9646 5.75997C10.9583 5.75156 10.8077 5.72002 10.7749 5.70478C10.5891 5.61884 10.4585 5.50768 10.2577 5.45486C10.1384 5.42359 10.2085 5.36945 10.2028 5.36525L10.0976 5.391L10.1231 5.34054C10.0049 5.3437 9.46667 4.94293 9.41437 4.99707L9.41411 4.99759Z" fill="#EDEAE5"/>
</svg>
