<svg width="21" height="21" viewBox="0 0 21 21" fill="none" xmlns="http://www.w3.org/2000/svg">
<path d="M13.6062 0.319336C13.6256 0.351776 13.6796 0.3388 13.712 0.3388C15.8099 0.360427 17.7241 0.583183 19.2019 2.22033C20.6797 3.85748 20.6602 5.83201 20.684 7.89953C20.684 7.93197 20.671 7.98603 20.7034 8.0055V12.9753C20.671 12.9948 20.684 13.0489 20.684 13.0813C20.6624 15.1532 20.6645 17.145 19.1911 18.7692C17.5577 20.5707 15.408 20.6334 13.1309 20.6615C13.0984 20.6615 13.0444 20.6485 13.025 20.681H8.06015C8.04071 20.6485 7.9867 20.6615 7.95429 20.6615C5.56261 20.6355 3.32433 20.549 1.69963 18.555C0.647465 17.2683 0.394686 15.5814 0.399007 13.955L0.360118 13.5571C0.405488 11.5155 0.301784 9.46314 0.360118 7.42158C0.427093 5.12913 0.647465 3.07675 2.57247 1.57369C3.98112 0.472886 5.7549 0.358264 7.47682 0.319336H13.6062ZM7.83546 2.17491C6.48731 2.20087 4.82804 2.15978 3.71754 3.02917C2.20951 4.20783 2.28081 5.9596 2.24192 7.70705C2.20303 9.55614 2.20303 11.4269 2.24192 13.2759C2.27865 15.0234 2.20951 16.7752 3.71754 17.9538C4.83236 18.8254 6.43329 18.7713 7.77929 18.7994C9.61356 18.8384 11.4694 18.8384 13.3059 18.7994C14.9306 18.7648 16.6352 18.834 17.817 17.5299C18.7806 16.4659 18.7871 15.0602 18.8238 13.7042C18.8821 11.5674 18.88 9.41557 18.8238 7.281C18.7871 5.925 18.7806 4.5171 17.817 3.45522C16.6287 2.14464 14.9198 2.22033 13.2864 2.18573C11.4781 2.1468 9.64812 2.14031 7.83762 2.17708L7.83546 2.17491Z" fill="#EDEAE5"/>
<path d="M10.4571 5.25642C14.238 5.20235 16.8522 9.09301 15.3312 12.5814C13.713 16.3012 8.60985 16.8376 6.26355 13.5179C3.83082 10.077 6.27003 5.31481 10.4571 5.25642ZM10.2454 7.11848C7.78238 7.29799 6.36293 10.103 7.63547 12.2246C8.89936 14.331 11.9089 14.437 13.3111 12.4192C14.9488 10.0619 13.0907 6.91087 10.2475 7.11848H10.2454Z" fill="#EDEAE5"/>
<path d="M15.8122 3.83773C17.5362 3.64958 17.6637 6.28805 15.9612 6.29886C14.4381 6.30751 14.2955 4.00209 15.8122 3.83773Z" fill="#EDEAE5"/>
</svg>
