<svg width="23" height="15" viewBox="0 0 23 15" fill="none" xmlns="http://www.w3.org/2000/svg">
<path d="M16.3555 4.62805C14.89 5.91181 13.4332 7.20955 11.9554 8.48195C11.5211 8.70305 11.0422 8.63401 10.6874 8.30979L1.62503 0.340693C1.62066 0.262042 2.15811 0.122218 2.25686 0.141443H20.6079C20.7608 0.152804 21.0824 0.20349 21.1969 0.296998C21.2598 0.348558 21.238 0.335449 21.1978 0.385262C19.5732 1.78787 17.9687 3.21408 16.3546 4.62805H16.3555Z" fill="#EDEAE5"/>
<path d="M14.919 9.09447C17.0207 10.9183 19.0779 12.8085 21.1997 14.6149C21.2871 14.6813 21.1682 14.7224 21.1114 14.7477C20.9664 14.8133 20.7698 14.85 20.609 14.8587H2.25878C2.15828 14.8771 1.62695 14.7416 1.62695 14.6595L9.10143 8.11832C9.18008 8.09735 9.32689 8.23367 9.39768 8.2896C9.88969 8.68286 10.2454 9.19409 10.8859 9.3846C12.2265 9.7831 12.7884 8.78685 13.734 8.11133C13.8109 8.11133 14.7739 8.96863 14.9199 9.09447H14.919Z" fill="#EDEAE5"/>
<path d="M21.9401 0.93457C22.0056 0.987004 22.1708 1.49037 22.1629 1.6101V13.3483C22.1839 13.4707 22.0126 14.0431 21.9165 14.0658L14.4141 7.48446L21.9401 0.93457Z" fill="#EDEAE5"/>
<path d="M0.926867 14.0663C0.884046 14.0322 0.688292 13.4939 0.704022 13.3907V1.65251C0.698779 1.38684 0.828116 1.15438 0.947841 0.930664L8.4529 7.51551L0.926867 14.0663Z" fill="#EDEAE5"/>
</svg>
