<svg width="45" height="26" viewBox="0 0 45 26" fill="none" xmlns="http://www.w3.org/2000/svg">
<path d="M12.6013 0.500944C22.5866 0.383858 28.873 11.1855 23.5985 19.5716C18.8047 27.1938 7.58293 27.5334 2.32955 20.1991C-3.56463 11.9701 2.40867 0.620293 12.6013 0.500944Z" fill="#EDEAE5"/>
<path d="M32.7084 1.11545C36.0783 0.850557 38.1108 5.05431 38.837 7.69714C40.087 12.2463 39.7336 19.4377 36.4241 23.1327C33.6347 26.2468 30.4382 24.9333 28.556 21.7632C25.7802 17.0882 25.7588 9.20373 28.4242 4.48053C29.3003 2.92834 30.7791 1.26747 32.7084 1.11578V1.11545Z" fill="#EDEAE5"/>
<path d="M42.5932 2.31456C43.2287 2.30163 43.6796 3.41426 43.8576 3.90298C45.0812 7.26482 45.1287 12.7319 44.8785 16.2911C44.7533 18.0736 44.3649 21.689 43.3635 23.1493C42.0852 25.013 41.185 21.6618 40.9789 20.7976C40.23 17.6605 40.1413 14.0008 40.2969 10.7926C40.4034 8.60031 40.6038 5.89634 41.3844 3.83829C41.5611 3.37222 41.9992 2.32686 42.5935 2.31456H42.5932Z" fill="#EDEAE5"/>
</svg>
