<svg width="44" height="30" viewBox="0 0 44 30" fill="none" xmlns="http://www.w3.org/2000/svg">
<path d="M43.881 5.23975L40.5017 9.15396C41.5281 10.2344 42.472 11.4358 43.0531 12.8249C47.6665 23.8491 34.391 33.1649 25.4779 25.4502L21.9215 29.129L18.4682 25.4502C14.4892 28.9533 8.27402 29.2734 4.12367 25.8628C-1.14341 21.5339 -1.35964 13.9167 3.4451 9.15396L0.0657788 5.23975H7.96106C8.05353 5.23975 9.2243 4.36701 9.50171 4.21977C16.8799 0.300581 25.012 -0.385811 32.6939 3.26878C33.2964 3.55543 35.7944 5.24047 35.9857 5.24047H43.881V5.23975ZM29.9391 6.09543C24.8584 4.18705 19.0507 4.06542 14.0056 6.16443C18.0727 7.93837 20.59 10.5865 21.8134 14.8663C21.8674 15.0555 21.7195 15.2604 22.0431 15.1992C22.61 12.273 24.3946 9.72655 26.7632 7.96754L29.9391 6.09614V6.09543ZM9.99249 9.97408C0.848905 11.0766 2.18612 25.4993 11.7849 24.5697C21.2657 23.6514 20.0323 8.76418 9.99249 9.97408ZM31.755 9.97123C22.7928 11.1833 24.0767 25.5015 33.6926 24.5697C43.2096 23.6471 41.8681 8.60343 31.755 9.97123Z" fill="#EDEAE5"/>
<path d="M10.8527 13.2399C15.9669 13.0471 16.4591 20.7433 11.3755 21.1707C5.97046 21.6252 5.54724 13.4398 10.8527 13.2399Z" fill="#EDEAE5"/>
<path d="M32.7603 13.2391C38.3674 13.0279 38.1718 21.7874 32.4452 21.1564C27.6774 20.6315 27.9506 13.4205 32.7603 13.2391Z" fill="#EDEAE5"/>
</svg>
